# xmcd CD database file
#
# Track frame offsets:
#	150
#	16905
#	42810
#	59035
#	77513
#	101615
#	124440
#	142740
#	169895
#	189770
#
# Disc length: 2894 seconds
#
# Revision: 0
# Processed by: cddbd v1.5PL3 Copyright (c) Steve Scherf et al.
# Submitted via: CDex 1.50beta9
#
DISCID=7c0b4c0a
DTITLE=THE COLLECTORS - SUPERSONIC SUNRISE
DYEAR=2001
DGENRE=Rock
TTITLE0=A TASTE OF YOUTH
TTITLE1=SHINE ON! STARDUST CHILDREN
TTITLE2=MILLION CROSSROAD ROCK
TTITLE3=恋のしわざ
TTITLE4=LUNA
TTITLE5=PUPPET MASTER
TTITLE6=A WAYOF LIFE
TTITLE7=長距離通話サービス
TTITLE8=ジュリーに相談
TTITLE9=沈みゆく船
EXTD=YEAR: 2001
EXTT0=
EXTT1=
EXTT2=
EXTT3=
EXTT4=
EXTT5=
EXTT6=
EXTT7=
EXTT8=
EXTT9=
PLAYORDER=
